Coordinates
version=1
nRows=13
nColumns=40
inDegrees=yes

Units are S.I. units (second, meters, Newtons, ...)
Angles are in degrees.

endheader
time	pelvis_tilt	pelvis_list	pelvis_rotation	pelvis_tx	pelvis_ty	pelvis_tz	hip_flexion_r	hip_adduction_r	hip_rotation_r	knee_angle_r	knee_angle_r_beta	ankle_angle_r	subtalar_angle_r	mtp_angle_r	hip_flexion_l	hip_adduction_l	hip_rotation_l	knee_angle_l	knee_angle_l_beta	ankle_angle_l	subtalar_angle_l	mtp_angle_l	lumbar_extension	lumbar_bending	lumbar_rotation	arm_flex_r	arm_add_r	arm_rot_r	elbow_flex_r	pro_sup_r	wrist_flex_r	wrist_dev_r	arm_flex_l	arm_add_l	arm_rot_l	elbow_flex_l	pro_sup_l	wrist_flex_l	wrist_dev_l
     49.53750000	     -5.70255733	     -6.26646340	      8.54943273	      0.91226515	      0.91654665	      0.47995765	     -0.37099018	      2.56620631	    -19.27414392	     17.82913954	     17.82913954	     17.96996047	      2.22730530	     -4.10594615	     29.48604769	     -6.28969096	      4.52760312	     31.79698747	     31.79698747	     10.49136316	    -16.27320692	     10.27069938	     -9.05665694	      4.20412910	      5.16684975	     56.61666146	    -19.71383714	    -12.77228108	     49.51668123	     45.63730391	      0.00000000	      0.00000000	    -12.13746036	    -10.17054234	     11.45914444	     33.79036522	     44.33956448	      0.00000000	      0.00000000
     49.55714286	     -5.84183742	     -6.21520410	      8.00669561	      0.91329042	      0.91739474	      0.47503605	     -0.47366707	      2.01205347	    -18.95954274	     18.26063387	     18.26063387	     17.44744807	      2.42666281	     -4.66466471	     28.86108638	     -6.20532455	      3.86195959	     31.63464699	     31.63464699	     11.23683182	    -16.07316740	     10.43899694	     -9.00780633	      4.19489887	      5.07311814	     56.41858006	    -19.19433421	    -13.24638575	     47.63408299	     45.72965549	      0.00000000	      0.00000000	    -11.79649295	    -10.65001818	     11.38151280	     34.57735985	     44.38636360	      0.00000000	      0.00000000
     49.57678571	     -5.95203069	     -6.27942765	      7.51314103	      0.91419002	      0.91819950	      0.47003560	     -0.60331147	      1.58398466	    -18.75432764	     18.58779908	     18.58779908	     16.46062375	      2.58114985	     -6.42182632	     28.29524186	     -6.17823810	      3.35950127	     31.56744877	     31.56744877	     11.98955366	    -16.02922347	     10.73687962	     -8.88838196	      4.36780103	      4.54296198	     56.95404627	    -18.01754948	    -14.80235091	     43.46073294	     45.96444694	      0.00000000	      0.00000000	    -11.84933463	    -11.18992664	     11.38234891	     36.01258699	     44.48992171	      0.00000000	      0.00000000
     49.59642857	     -6.03810772	     -6.22544643	      6.99995806	      0.91501218	      0.91924009	      0.46508703	     -0.54177304	      0.99108656	    -18.38070987	     19.35528850	     19.35528850	     15.97384709	      2.53777220	     -6.73066937	     27.54393884	     -6.06403650	      2.70688851	     31.23539389	     31.23539389	     12.51822618	    -15.88233440	     10.57587917	     -8.87845035	      4.39595206	      4.56682391	     55.84388119	    -17.95380368	    -15.02089171	     42.52409701	     46.00404514	      0.00000000	      0.00000000	    -11.13041469	    -11.57015597	     11.22268775	     36.36078551	     44.53499478	      0.00000000	      0.00000000
     49.61607143	     -6.07315539	     -6.16440183	      6.53546580	      0.91571129	      0.92043167	      0.46007933	     -0.41101119	      0.37422737	    -17.98352194	     20.30057537	     20.30057537	     15.35213316	      2.35431204	     -7.19735830	     26.72942559	     -5.91503148	      2.08574436	     30.84769847	     30.84769847	     12.93288477	    -15.73259119	     10.43240255	     -8.86346157	      4.46512984	      4.53942971	     54.56807240	    -17.92804479	    -15.28899466	     41.30933307	     46.05628953	      0.00000000	      0.00000000	    -10.32401719	    -11.93994839	     11.08085912	     36.73099971	     44.57682968	      0.00000000	      0.00000000
     49.63571429	     -6.07920538	     -6.16741979	      6.06758584	      0.91629995	      0.92161501	      0.45523429	     -0.27941336	     -0.09801676	    -17.36288031	     21.07483566	     21.07483566	     13.47388950	      1.15903682	    -11.01834714	     25.88440784	     -5.82895554	      1.49516213	     30.40647397	     30.40647397	     13.19744293	    -15.69264744	      9.81195473	     -8.82380500	      4.58925950	      4.24625789	     54.29693254	    -17.31606176	    -17.33658870	     37.17180254	     46.31785713	      0.00000000	      0.00000000	     -9.46800844	    -12.31808811	     11.22143697	     37.05387761	     44.69095863	      0.00000000	      0.00000000
     49.65535714	     -6.05731566	     -6.08421538	      5.65007066	      0.91681300	      0.92302230	      0.45024817	      0.10528544	     -0.78878369	    -16.89660786	     22.51632718	     22.51632718	     12.69174974	      0.54987488	    -11.58099954	     24.96111811	     -5.59722207	      0.95789996	     29.87191719	     29.87191719	     13.52436428	    -15.63968238	      9.75419931	     -8.86319401	      4.65311895	      4.07004230	     52.47216434	    -17.27658083	    -17.61269049	     36.18409471	     46.35841615	      0.00000000	      0.00000000	     -8.46039845	    -12.62618556	     11.05606356	     37.41064490	     44.74363592	      0.00000000	      0.00000000
     49.67500000	     -5.95655959	     -5.96105287	      5.27856370	      0.91734481	      0.92457600	      0.44523605	      0.52623046	     -1.52650351	    -16.37469456	     24.14791155	     24.14791155	     11.75972816	     -0.29889885	    -12.20381090	     23.93501177	     -5.30551800	      0.43592292	     29.28843881	     29.28843881	     13.79173492	    -15.57536354	      9.73577202	     -8.95316828	      4.71139463	      3.78079951	     50.44412328	    -17.17953503	    -17.82098068	     35.08175182	     46.39920445	      0.00000000	      0.00000000	     -7.37146116	    -12.93560231	     10.92474064	     37.68030149	     44.78561332	      0.00000000	      0.00000000
     49.69464286	     -5.82518408	     -5.87896169	      4.93353143	      0.91779751	      0.92600248	      0.44028613	      1.11636013	     -2.23200390	    -15.72413568	     26.09811952	     26.09811952	     10.62643116	     -1.49140100	    -13.04974011	     22.93689561	     -5.02297212	      0.03406842	     28.77333125	     28.77333125	     14.03029213	    -15.59988006	      9.71332524	     -8.96605565	      4.82190136	      3.51172733	     48.23043753	    -17.14822493	    -18.04898565	     33.85467598	     46.44575639	      0.00000000	      0.00000000	     -6.10718329	    -13.19076804	     10.81331395	     37.93365016	     44.82716919	      0.00000000	      0.00000000
     49.71428571	     -5.73311535	     -5.93214522	      4.59083344	      0.91800955	      0.92720986	      0.43554120	      1.72249679	     -2.60986999	    -14.65598475	     27.62661066	     27.62661066	      7.51989239	     -4.63873593	    -18.52438416	     22.07583099	     -4.85268101	     -0.23623036	     28.34200625	     28.34200625	     14.20389674	    -15.81443581	      9.42158790	     -9.01092956	      5.10312634	      3.62747301	     45.89551325	    -17.32075585	    -19.42539514	     31.96180633	     46.58535726	      0.00000000	      0.00000000	     -4.06007330	    -13.23640087	     11.45374356	     36.93099868	     44.87494310	      0.00000000	      0.00000000
     49.73392857	     -5.58161828	     -5.89625540	      4.27969447	      0.91818110	      0.92820473	      0.43074345	      2.65918240	     -3.25940814	    -13.87551360	     30.14420599	     30.14420599	      6.18298407	     -6.36046838	    -19.09339317	     21.19130526	     -4.57044073	     -0.47767192	     27.99499878	     27.99499878	     14.49253705	    -16.00400081	      9.45470583	     -9.11182968	      5.30696543	      3.42683693	     43.17512660	    -17.33411217	    -19.79297861	     30.83324317	     46.63188064	      0.00000000	      0.00000000	     -2.61630607	    -13.45553100	     11.45991422	     37.46308848	     44.92811489	      0.00000000	      0.00000000
     49.75357143	     -5.34855473	     -5.76054613	      3.98747198	      0.91822985	      0.92889175	      0.42598246	      3.68793408	     -4.09067069	    -13.28842794	     33.01088024	     33.01088024	      4.95458599	     -7.70066468	    -19.31883470	     20.28636285	     -4.20542615	     -0.80485682	     27.76673218	     27.76673218	     14.86323169	    -16.05983475	      9.40997530	     -9.33026372	      5.42802218	      2.84904578	     40.51470190	    -16.96924345	    -19.91894066	     29.75046780	     46.66246032	      0.00000000	      0.00000000	     -1.24572236	    -13.71982309	     11.37173687	     37.88658080	     44.96654680	      0.00000000	      0.00000000
     49.77321429	     -5.23104965	     -5.72263283	      3.64268845	      0.91795309	      0.92890245	      0.42147992	      5.08108573	     -4.71534664	    -12.38143854	     36.16140091	     36.16140091	      3.61110545	     -9.63010433	    -19.33762176	     19.64457864	     -3.92526175	     -1.01746240	     27.73485707	     27.73485707	     15.28111117	    -16.28434779	      9.36226744	     -9.43284263	      5.67202623	      2.64050125	     37.56874458	    -16.84435438	    -20.08929192	     28.54441200	     46.70074012	      0.00000000	      0.00000000	      0.34092556	    -13.86855263	     11.31421179	     38.40955472	     45.00699454	      0.00000000	      0.00000000
